<svg xmlns="http://www.w3.org/2000/svg" viewBox="0 0 96 96">
  <defs>
    <linearGradient id="g" x1="0" x2="1" y1="0" y2="1">
      <stop offset="0" stop-color="#f6d892"/>
      <stop offset="1" stop-color="#b88936"/>
    </linearGradient>
  </defs>
  <rect width="96" height="96" rx="24" fill="#07101f"/>
  <path d="M22 57h52l-7-19c-1.1-3.1-4-5-7.3-5H36.3c-3.3 0-6.2 1.9-7.3 5L22 57Z" fill="url(#g)"/>
  <path d="M31 58a7 7 0 1 0 0 14 7 7 0 0 0 0-14Zm34 0a7 7 0 1 0 0 14 7 7 0 0 0 0-14Z" fill="#fff4d1"/>
  <path d="M36 39h24l4 11H32l4-11Z" fill="#081323" opacity=".9"/>
  <path d="M31 24h34v8H31z" fill="#fff4d1" opacity=".9"/>
</svg>
